<svg width="145" height="76" viewBox="0 0 145 76" fill="none" xmlns="http://www.w3.org/2000/svg">
<rect x="0.665136" y="45.8944" width="94.4492" height="21.2843" rx="1.99541" fill="#F46C35" stroke="#ED4A11" stroke-width="1.33027"/>
<rect x="9.9769" y="23.2797" width="94.4492" height="21.2843" rx="1.99541" fill="#F46C35" stroke="#ED4A11" stroke-width="1.33027"/>
<rect x="0.665136" y="0.665136" width="94.4492" height="21.2843" rx="1.99541" fill="#F46C35" stroke="#ED4A11" stroke-width="1.33027"/>
<rect x="9.31177" y="1.33027" width="7.98163" height="19.9541" fill="#987AE7"/>
<rect x="9.31177" y="1.33027" width="7.98163" height="19.9541" fill="#FCB028"/>
<rect x="19.9535" y="1.33027" width="5.32108" height="19.9541" fill="#987AE7"/>
<rect x="19.9535" y="1.33027" width="5.32108" height="19.9541" fill="#FCB028"/>
<rect x="20" y="24" width="6.65136" height="19.9541" fill="#987AE7"/>
<rect x="20" y="24" width="6.65136" height="19.9541" fill="#FCB028"/>
<rect x="30.5968" y="23.9449" width="3.99081" height="19.9541" fill="#987AE7"/>
<rect x="30.5968" y="23.9449" width="3.99081" height="19.9541" fill="#FCB028"/>
<rect x="7.98169" y="46.5595" width="17.2935" height="19.9541" fill="#987AE7"/>
<rect x="7.98169" y="46.5595" width="17.2935" height="19.9541" fill="#FCB028"/>
<rect x="29.2667" y="46.5595" width="10.6422" height="19.9541" fill="#987AE7"/>
<rect x="29.2667" y="46.5595" width="10.6422" height="19.9541" fill="#FCB028"/>
<rect x="50.5503" y="1.33027" width="34.587" height="19.9541" fill="#FCB028"/>
<rect x="58.532" y="23.9449" width="34.587" height="19.9541" fill="#FCB028"/>
<rect x="53.2104" y="46.5595" width="29.266" height="19.9541" fill="#FCB028"/>
<circle cx="112.409" cy="43.2338" r="31.9265" fill="#F46C35" stroke="#ED4A11" stroke-width="1.33027"/>
<circle cx="112.408" cy="43.2338" r="20.6192" stroke="#EB5757" stroke-width="2.66054"/>
<path d="M118.249 46.1368C118.249 47.2152 117.809 48.1659 116.929 48.9889C116.049 49.7977 114.907 50.2518 113.502 50.3511V52.3731C113.502 52.6285 113.41 52.7562 113.225 52.7562H112.757C112.573 52.7562 112.48 52.6285 112.48 52.3731V50.3511C111.09 50.266 109.969 49.8828 109.118 49.2017C108.266 48.5206 107.84 47.8537 107.84 47.201C107.84 46.7895 107.947 46.4773 108.16 46.2645C108.373 46.0375 108.642 45.924 108.969 45.924C109.337 45.924 109.671 46.08 109.969 46.3922C110.267 46.7044 110.501 47.0591 110.671 47.4564C110.856 47.8537 111.104 48.2581 111.416 48.6696C111.743 49.0669 112.097 49.3365 112.48 49.4784V43.9658C112.012 43.7813 111.7 43.6607 111.544 43.604C111.388 43.533 111.104 43.3982 110.693 43.1996C110.281 42.9867 109.99 42.8164 109.82 42.6887C109.65 42.561 109.416 42.3695 109.118 42.1141C108.834 41.8586 108.628 41.6032 108.5 41.3478C108.387 41.0924 108.273 40.7873 108.16 40.4326C108.06 40.0779 108.011 39.6947 108.011 39.2832C108.011 38.1481 108.422 37.2045 109.245 36.4524C110.082 35.6862 111.203 35.2676 112.608 35.1966V33.877C112.608 33.6358 112.7 33.5152 112.885 33.5152H113.332C113.53 33.5152 113.63 33.6358 113.63 33.877V35.2179C114.921 35.3173 115.957 35.6649 116.737 36.2609C117.518 36.8426 117.908 37.4741 117.908 38.1552C117.908 38.5383 117.802 38.8505 117.589 39.0917C117.39 39.3187 117.106 39.4322 116.737 39.4322C116.397 39.4322 116.099 39.2832 115.843 38.9853C115.602 38.6731 115.418 38.3254 115.29 37.9423C115.162 37.5592 114.949 37.1832 114.651 36.8143C114.368 36.4453 114.027 36.2041 113.63 36.0906V41.582C115.006 42.1212 115.9 42.5114 116.312 42.7526C117.603 43.5472 118.249 44.6753 118.249 46.1368ZM110.607 38.368C110.607 39.0349 110.778 39.5812 111.118 40.0069C111.473 40.4326 111.97 40.8086 112.608 41.135V36.0693C111.998 36.1544 111.508 36.4099 111.14 36.8355C110.785 37.247 110.607 37.7579 110.607 38.368ZM113.502 49.5636C114.112 49.4784 114.623 49.1946 115.035 48.7122C115.446 48.2156 115.652 47.6338 115.652 46.9669C115.652 46.3567 115.467 45.8601 115.098 45.477C114.729 45.0797 114.197 44.7249 113.502 44.4128V49.5636Z" fill="#FCB028"/>
<path d="M95.802 2.15197C95.8307 1.91844 96.1693 1.91844 96.198 2.15197L97.4927 12.6634C97.5113 12.8137 97.6291 12.9326 97.7793 12.9524L107.995 14.3022C108.226 14.3327 108.226 14.6673 107.995 14.6978L97.7793 16.0476C97.6291 16.0674 97.5113 16.1863 97.4927 16.3366L96.198 26.848C96.1693 27.0816 95.8307 27.0816 95.802 26.848L94.5073 16.3366C94.4887 16.1863 94.3709 16.0674 94.2207 16.0476L84.005 14.6978C83.7738 14.6673 83.7738 14.3327 84.005 14.3022L94.2207 12.9524C94.3709 12.9326 94.4887 12.8137 94.5073 12.6634L95.802 2.15197Z" fill="white" stroke="#FCB028" stroke-width="0.133027"/>
<path d="M37.3021 36.0772C37.3317 35.8448 37.6683 35.8448 37.6979 36.0772L38.5959 43.1163C38.6151 43.2666 38.7334 43.3849 38.8837 43.4041L45.9228 44.3021C46.1552 44.3317 46.1552 44.6683 45.9228 44.6979L38.8837 45.5959C38.7334 45.6151 38.6151 45.7334 38.5959 45.8837L37.6979 52.9228C37.6683 53.1552 37.3317 53.1552 37.3021 52.9228L36.4041 45.8837C36.3849 45.7334 36.2666 45.6151 36.1163 45.5959L29.0772 44.6979C28.8448 44.6683 28.8448 44.3317 29.0772 44.3021L36.1163 43.4041C36.2666 43.3849 36.3849 43.2666 36.4041 43.1163L37.3021 36.0772Z" fill="white" stroke="#FCB028" stroke-width="0.133027"/>
</svg>
