<svg width="163" height="106" viewBox="0 0 163 106" fill="none" xmlns="http://www.w3.org/2000/svg">
<path d="M18.4448 43.3907C18.4963 42.9726 19.1025 42.9726 19.154 43.3907L20.8925 57.5056C20.9124 57.6671 21.039 57.7948 21.2003 57.8161L34.9181 59.6286C35.3321 59.6833 35.3321 60.2823 34.9181 60.3369L21.2003 62.1494C21.039 62.1707 20.9124 62.2984 20.8925 62.4599L19.154 76.5748C19.1025 76.9929 18.4963 76.9929 18.4448 76.5748L16.7063 62.4599C16.6864 62.2984 16.5598 62.1707 16.3985 62.1494L2.68065 60.3369C2.26669 60.2823 2.26669 59.6833 2.68065 59.6286L16.3985 57.8161C16.5598 57.7948 16.6864 57.6671 16.7063 57.5056L18.4448 43.3907Z" fill="#987AE7"/>
<path d="M118.061 3.13688C118.066 3.09545 118.082 3.07644 118.095 3.06581C118.112 3.05266 118.137 3.04273 118.168 3.04273C118.198 3.04273 118.224 3.05266 118.24 3.06581C118.253 3.07644 118.269 3.09545 118.274 3.13688L120.013 17.2517C120.046 17.5263 120.262 17.7433 120.536 17.7795L134.254 19.592C134.294 19.5974 134.313 19.6131 134.324 19.6264C134.337 19.6427 134.347 19.668 134.347 19.6983C134.347 19.7287 134.337 19.754 134.324 19.7703C134.313 19.7836 134.294 19.7993 134.254 19.8047L120.536 21.6172C120.262 21.6534 120.046 21.8704 120.013 22.145L118.274 36.2598C118.269 36.3012 118.253 36.3202 118.24 36.3309C118.224 36.344 118.198 36.354 118.168 36.354C118.137 36.354 118.112 36.344 118.095 36.3309C118.082 36.3202 118.066 36.3012 118.061 36.2598L116.323 22.145C116.289 21.8704 116.074 21.6534 115.8 21.6172L102.082 19.8047C102.041 19.7993 102.022 19.7836 102.011 19.7703C101.998 19.754 101.988 19.7287 101.988 19.6983C101.988 19.668 101.998 19.6427 102.011 19.6264C102.022 19.6131 102.041 19.5974 102.082 19.592L115.8 17.7795C116.074 17.7433 116.289 17.5263 116.323 17.2517L118.061 3.13688Z" fill="white" stroke="#F46C35" stroke-width="0.5"/>
<path d="M152.815 78.4152C152.852 78.1002 153.309 78.1002 153.347 78.4152L154.023 84.0931C154.047 84.295 154.204 84.4552 154.406 84.4827L159.879 85.2308C160.188 85.273 160.188 85.7195 159.879 85.7617L154.406 86.5097C154.204 86.5373 154.047 86.6975 154.023 86.8994L153.347 92.5773C153.309 92.8923 152.852 92.8923 152.815 92.5773L152.139 86.8994C152.115 86.6975 151.957 86.5373 151.756 86.5097L146.283 85.7617C145.974 85.7195 145.974 85.273 146.283 85.2308L151.756 84.4827C151.957 84.4552 152.115 84.295 152.139 84.0931L152.815 78.4152Z" fill="#F46C35" stroke="#F46C35" stroke-width="0.178631"/>
<path d="M67.3573 55.4774C58.2344 51.1959 55.0584 38.1169 55.0584 38.1169C69.2786 38.1494 75.5591 41.1607 81.9606 55.0738C81.9606 55.0738 76.4802 59.759 67.3573 55.4774Z" fill="#437F55" stroke="#FCB028" stroke-width="1.34281"/>
<path d="M81.9117 96.9101C77.2815 80.2628 73.8995 70.931 84.2446 54.2513" stroke="#437F62" stroke-width="2.68563"/>
<path d="M104.361 25.2694C88.5008 32.9534 83.2606 55.8707 83.2606 55.8707C108.143 55.4941 119.06 50.0929 129.924 25.6461C129.924 25.6461 120.221 17.5854 104.361 25.2694Z" fill="#437F62" stroke="#FCB028" stroke-width="1.34281"/>
<path d="M84.5973 55.2829C84.5973 55.2829 95.013 41.2942 104.068 35.3593C112.803 29.6345 128.91 25.741 128.91 25.741" stroke="#FCB028" stroke-width="0.671407"/>
<path d="M99.3682 102.281C99.3682 105.989 91.8532 104.967 82.583 104.967C73.3128 104.967 65.7979 105.989 65.7979 102.281C65.7979 98.5733 73.3128 95.5673 82.583 95.5673C91.8532 95.5673 99.3682 98.5733 99.3682 102.281Z" fill="#7EB9B2"/>
</svg>
