<svg width="163" height="138" viewBox="0 0 163 138" fill="none" xmlns="http://www.w3.org/2000/svg">
<path d="M18.4448 75.3907C18.4963 74.9726 19.1025 74.9726 19.154 75.3907L20.8925 89.5056C20.9124 89.6671 21.039 89.7948 21.2003 89.8161L34.9181 91.6286C35.3321 91.6833 35.3321 92.2822 34.9181 92.3369L21.2003 94.1494C21.039 94.1707 20.9124 94.2984 20.8925 94.4599L19.154 108.575C19.1025 108.993 18.4963 108.993 18.4448 108.575L16.7063 94.4599C16.6864 94.2984 16.5598 94.1707 16.3985 94.1494L2.68065 92.3369C2.26669 92.2822 2.26669 91.6833 2.68065 91.6286L16.3985 89.8161C16.5598 89.7948 16.6864 89.6671 16.7063 89.5056L18.4448 75.3907Z" fill="#987AE7"/>
<path d="M118.061 35.1369C118.066 35.0954 118.082 35.0764 118.095 35.0658C118.112 35.0527 118.137 35.0427 118.168 35.0427C118.198 35.0427 118.224 35.0527 118.24 35.0658C118.253 35.0764 118.269 35.0954 118.274 35.1369L120.013 49.2517C120.046 49.5263 120.262 49.7433 120.536 49.7795L134.254 51.592C134.294 51.5974 134.313 51.6131 134.324 51.6264C134.337 51.6427 134.347 51.668 134.347 51.6983C134.347 51.7287 134.337 51.754 134.324 51.7703C134.313 51.7836 134.294 51.7993 134.254 51.8047L120.536 53.6172C120.262 53.6534 120.046 53.8704 120.013 54.145L118.274 68.2598C118.269 68.3012 118.253 68.3202 118.24 68.3309C118.224 68.344 118.198 68.354 118.168 68.354C118.137 68.354 118.112 68.344 118.095 68.3309C118.082 68.3202 118.066 68.3012 118.061 68.2598L116.323 54.145C116.289 53.8704 116.074 53.6534 115.8 53.6172L102.082 51.8047C102.041 51.7993 102.022 51.7836 102.011 51.7703C101.998 51.754 101.988 51.7287 101.988 51.6983C101.988 51.668 101.998 51.6427 102.011 51.6264C102.022 51.6131 102.041 51.5974 102.082 51.592L115.8 49.7795C116.074 49.7433 116.289 49.5263 116.323 49.2517L118.061 35.1369Z" fill="white" stroke="#F46C35" stroke-width="0.5"/>
<path d="M152.815 110.415C152.852 110.1 153.309 110.1 153.347 110.415L154.023 116.093C154.047 116.295 154.204 116.455 154.406 116.483L159.879 117.231C160.188 117.273 160.188 117.719 159.879 117.762L154.406 118.51C154.204 118.537 154.047 118.697 154.023 118.899L153.347 124.577C153.309 124.892 152.852 124.892 152.815 124.577L152.139 118.899C152.115 118.697 151.957 118.537 151.756 118.51L146.283 117.762C145.974 117.719 145.974 117.273 146.283 117.231L151.756 116.483C151.957 116.455 152.115 116.295 152.139 116.093L152.815 110.415Z" fill="#F46C35" stroke="#F46C35" stroke-width="0.178631"/>
<path d="M67.3573 87.4774C58.2344 83.1959 55.0584 70.1169 55.0584 70.1169C69.2786 70.1494 75.5591 73.1607 81.9606 87.0738C81.9606 87.0738 76.4802 91.759 67.3573 87.4774Z" fill="#437F55" stroke="#FCB028" stroke-width="1.34281"/>
<path d="M81.9117 128.91C77.2815 112.263 73.8995 102.931 84.2446 86.2513" stroke="#437F62" stroke-width="2.68563"/>
<path d="M104.361 57.2694C88.5008 64.9534 83.2606 87.8707 83.2606 87.8707C108.143 87.4941 119.06 82.0929 129.924 57.6461C129.924 57.6461 120.221 49.5854 104.361 57.2694Z" fill="#437F62" stroke="#FCB028" stroke-width="1.34281"/>
<path d="M84.5973 87.2829C84.5973 87.2829 95.013 73.2942 104.068 67.3593C112.803 61.6345 128.91 57.741 128.91 57.741" stroke="#FCB028" stroke-width="0.671407"/>
<path d="M99.3682 134.281C99.3682 137.989 91.8532 136.967 82.583 136.967C73.3128 136.967 65.7979 137.989 65.7979 134.281C65.7979 130.573 73.3128 127.567 82.583 127.567C91.8532 127.567 99.3682 130.573 99.3682 134.281Z" fill="#7EB9B2"/>
<path d="M74.2601 3.0055C74.2974 2.69027 74.7549 2.69026 74.7922 3.0055L75.3924 8.07244C75.4164 8.27437 75.5737 8.43465 75.7751 8.46232L80.666 9.13424C80.9746 9.17665 80.9746 9.62275 80.666 9.66515L75.7751 10.3371C75.5737 10.3647 75.4164 10.525 75.3924 10.727L74.7922 15.7939C74.7549 16.1091 74.2974 16.1091 74.2601 15.7939L73.6598 10.727C73.6359 10.525 73.4786 10.3647 73.2771 10.3371L68.3863 9.66515C68.0776 9.62275 68.0776 9.17665 68.3863 9.13424L73.2771 8.46232C73.4786 8.43465 73.6359 8.27437 73.6598 8.07244L74.2601 3.0055Z" fill="#EB5757" stroke="#F46C35" stroke-width="0.178631"/>
</svg>
