<svg width="168" height="97" viewBox="0 0 168 97" fill="none" xmlns="http://www.w3.org/2000/svg">
<rect x="58.2046" y="29.1024" width="51.5905" height="38.3622" rx="3.9685" fill="#7EB9B2"/>
<rect y="29.1024" width="51.5905" height="38.3622" rx="3.9685" fill="#7EB9B2"/>
<path d="M62.1737 33.0709C62.1737 30.8791 63.9505 29.1024 66.1422 29.1024H105.827C108.019 29.1024 109.796 30.8791 109.796 33.0709V63.4961C109.796 65.6878 108.019 67.4646 105.827 67.4646H88.6304C74.0188 67.4646 62.1737 55.6195 62.1737 41.0079V33.0709Z" fill="#987AE7"/>
<rect x="116.409" y="30.0563" width="51.5905" height="37.0394" rx="3.9685" fill="#7EB9B2"/>
<path d="M116.409 33.0709V64.2419C116.409 65.7084 117.465 66.962 118.91 67.2113C119.835 67.371 120.782 67.0904 121.47 66.4525L131.716 56.9612C132.501 56.2333 132.959 55.2188 132.986 54.1481L133.505 33.1691C133.56 30.9396 131.768 29.1024 129.538 29.1024H120.378C118.186 29.1024 116.409 30.8791 116.409 33.0709Z" fill="#987AE7"/>
<line x1="7.75" y1="52.25" x2="38.25" y2="52.25" stroke="#F46C35" stroke-width="1.5" stroke-linecap="round"/>
<line x1="7.75" y1="59.25" x2="17.25" y2="59.25" stroke="#F46C35" stroke-width="1.5" stroke-linecap="round"/>
<line x1="21.75" y1="59.25" x2="38.25" y2="59.25" stroke="#F46C35" stroke-width="1.5" stroke-linecap="round"/>
<line x1="62.75" y1="52.25" x2="93.25" y2="52.25" stroke="#F46C35" stroke-width="1.5" stroke-linecap="round"/>
<line x1="62.75" y1="59.25" x2="72.25" y2="59.25" stroke="#F46C35" stroke-width="1.5" stroke-linecap="round"/>
<line x1="76.75" y1="59.25" x2="93.25" y2="59.25" stroke="#F46C35" stroke-width="1.5" stroke-linecap="round"/>
<line x1="121.75" y1="52.25" x2="152.25" y2="52.25" stroke="#F46C35" stroke-width="1.5" stroke-linecap="round"/>
<line x1="121.75" y1="59.25" x2="131.25" y2="59.25" stroke="#F46C35" stroke-width="1.5" stroke-linecap="round"/>
<line x1="135.75" y1="59.25" x2="152.25" y2="59.25" stroke="#F46C35" stroke-width="1.5" stroke-linecap="round"/>
<path d="M157.336 91.0884L130.488 64.2401C136.94 56.4946 140.157 46.5599 139.47 36.5028C138.784 26.4456 134.246 17.0402 126.802 10.2433C119.358 3.44634 109.579 -0.218872 99.5012 0.0101185C89.4232 0.239109 79.8215 4.34467 72.6934 11.4727C65.5654 18.6008 61.4598 28.2025 61.2308 38.2805C61.0018 48.3585 64.667 58.1368 71.464 65.5813C78.2609 73.0257 87.6663 77.5632 97.7235 78.2497C107.781 78.9362 117.715 75.7189 125.461 69.2671L152.309 96.1153L157.336 91.0884ZM68.4581 39.2334C68.4581 32.9052 70.3346 26.7191 73.8504 21.4574C77.3662 16.1956 82.3633 12.0946 88.2098 9.67292C94.0563 7.25122 100.49 6.61759 106.696 7.85216C112.903 9.08674 118.604 12.1341 123.079 16.6088C127.553 21.0835 130.601 26.7847 131.835 32.9913C133.07 39.1979 132.436 45.6313 130.015 51.4778C127.593 57.3243 123.492 62.3214 118.23 65.8372C112.968 69.353 106.782 71.2295 100.454 71.2295C91.9711 71.2201 83.8383 67.8461 77.8399 61.8477C71.8415 55.8493 68.4675 47.7164 68.4581 39.2334Z" fill="#202020"/>
</svg>
