<svg width="145" height="40" viewBox="0 0 145 40" fill="none" xmlns="http://www.w3.org/2000/svg">
<path d="M30.6178 28.2822C29.301 28.2822 28.2194 27.8683 27.3729 27.0406C26.5264 26.1942 26.1032 24.8398 26.1032 22.9775V17.2496C26.1032 16.817 25.9245 16.4314 25.5671 16.0928C25.2097 15.7354 25.031 15.4908 25.031 15.3591V15.2745C25.031 14.9923 25.1909 14.823 25.5107 14.7666L28.5016 14.2869C29.1411 14.1929 29.4609 14.3339 29.4609 14.7102L29.4045 23.8804C29.3857 25.8932 30.0253 26.909 31.3232 26.9278C32.6588 26.9466 33.8439 26.2882 34.8784 24.9526C35.913 23.5983 36.4303 21.9805 36.4303 20.0995C36.4303 19.4787 36.3081 18.9426 36.0635 18.4911C35.819 18.0397 35.5462 17.7105 35.2453 17.5036C34.9631 17.2966 34.6997 17.0333 34.4552 16.7135C34.2107 16.3749 34.0884 15.9987 34.0884 15.5849C34.0884 15.171 34.2201 14.8324 34.4834 14.5691C34.7468 14.3057 35.1418 14.1741 35.6685 14.1741C36.4209 14.1741 37.0511 14.5315 37.559 15.2463C38.0669 15.9423 38.3208 17.0803 38.3208 18.6604C38.3208 21.5385 37.5778 23.8616 36.0917 25.6298C34.6057 27.3981 32.781 28.2822 30.6178 28.2822ZM46.3413 28.2822C44.0276 28.2822 42.1747 27.5768 40.7827 26.1659C39.3907 24.7551 38.6947 23.0622 38.6947 21.087C38.6947 19.1119 39.3719 17.4659 40.7263 16.1492C42.0806 14.8324 43.736 14.1741 45.6923 14.1741C47.8744 14.1741 49.6614 14.8701 51.0534 16.2621C52.4454 17.6352 53.1414 19.3188 53.1414 21.3128C53.1414 23.2879 52.5112 24.9432 51.2509 26.2788C49.9906 27.6144 48.354 28.2822 46.3413 28.2822ZM46.7645 27.2099C47.6674 27.2099 48.4011 26.7961 48.9654 25.9684C49.5297 25.1219 49.8119 23.9557 49.8119 22.4696C49.8119 20.4757 49.3792 18.7733 48.5139 17.3625C47.6674 15.9517 46.6046 15.2463 45.3255 15.2463C44.3097 15.2463 43.5009 15.6601 42.8989 16.4878C42.3158 17.2966 42.0242 18.4629 42.0242 19.9866C42.0242 21.8301 42.4663 23.4948 43.3504 24.9809C44.2533 26.4669 45.3913 27.2099 46.7645 27.2099ZM54.1082 28C53.7132 28 53.5157 27.8589 53.5157 27.5768V27.4921C53.5157 27.304 53.685 27.0501 54.0236 26.7303C54.381 26.4105 54.5597 26.0531 54.5597 25.6581V10.7881C54.5597 10.3366 54.381 9.93222 54.0236 9.57481C53.685 9.2174 53.5157 8.98227 53.5157 8.8694V8.78475C53.5157 8.61546 53.6756 8.44616 53.9954 8.27686L56.8452 6.86605C57.165 6.73438 57.4095 6.72497 57.5788 6.83784C57.7669 6.93189 57.861 7.09178 57.861 7.31751V25.6581C57.861 26.0531 58.0491 26.4199 58.4253 26.7585C58.8203 27.0783 59.0179 27.3228 59.0179 27.4921V27.5768C59.0179 27.8589 58.8109 28 58.3971 28H54.1082ZM72.6417 25.3477C72.6417 25.8368 72.7169 26.2036 72.8674 26.4481C73.0179 26.6926 73.1778 26.8337 73.3471 26.8714C73.5352 26.8902 73.7045 26.9466 73.855 27.0406C74.0054 27.1159 74.0807 27.257 74.0807 27.4639C74.0807 27.9342 73.3753 28.1693 71.9645 28.1693C71.1744 28.1693 70.5913 28.0094 70.2151 27.6896C69.8389 27.3698 69.6602 26.8337 69.679 26.0813C68.8513 27.5485 67.4405 28.2822 65.4465 28.2822C63.8664 28.2822 62.5967 27.7555 61.6373 26.7021C60.678 25.6486 60.1983 24.125 60.1983 22.131V17.2496C60.1983 16.817 60.0196 16.4314 59.6622 16.0928C59.3048 15.7354 59.1261 15.4908 59.1261 15.3591V15.2745C59.1261 14.9923 59.2954 14.823 59.634 14.7666L62.5967 14.2869C63.2363 14.1929 63.556 14.3339 63.556 14.7102L63.4996 22.4414C63.4996 25.4323 64.4401 26.9278 66.3212 26.9278C67.1865 26.9278 67.9013 26.5798 68.4657 25.8838C69.0488 25.169 69.3404 24.2472 69.3404 23.1186V17.2496C69.3404 16.817 69.1523 16.4314 68.776 16.0928C68.4186 15.7354 68.2399 15.4908 68.2399 15.3591V15.2745C68.2399 14.9923 68.3998 14.823 68.7196 14.7666L71.7387 14.2869C72.3407 14.1929 72.6417 14.3339 72.6417 14.7102V25.3477ZM88.279 25.6298C88.2978 26.0437 88.4671 26.4199 88.7868 26.7585C89.1254 27.0783 89.2947 27.3228 89.2947 27.4921V27.605C89.2947 27.8871 89.0878 28.0282 88.674 28.0282H84.5544C84.1406 28.0282 83.9337 27.8871 83.9337 27.605V27.4921C83.9337 27.3228 84.103 27.0783 84.4416 26.7585C84.799 26.4199 84.9683 26.0437 84.9494 25.6298L84.6673 20.1841C84.5356 17.0803 83.548 15.5284 81.7046 15.5284C80.8205 15.5284 80.1057 15.8576 79.5601 16.516C79.0146 17.1556 78.7419 17.9926 78.7419 19.0272V25.6581C78.7419 26.0719 78.93 26.4387 79.3062 26.7585C79.7012 27.0783 79.8987 27.3228 79.8987 27.4921V27.605C79.8987 27.8871 79.6918 28.0282 79.278 28.0282H74.9045C74.5094 28.0282 74.3119 27.8871 74.3119 27.605V27.4921C74.3119 27.3228 74.5 27.0783 74.8763 26.7585C75.2525 26.4387 75.4406 26.0719 75.4406 25.6581V18.0961C75.4406 17.7387 75.3277 17.4471 75.102 17.2214C74.8951 16.9957 74.6881 16.817 74.4812 16.6853C74.2743 16.5348 74.1708 16.3749 74.1708 16.2056V16.121C74.1708 15.9329 74.3401 15.7636 74.6787 15.6131L77.4157 14.2869C77.7167 14.1552 77.933 14.1458 78.0647 14.2587C78.2152 14.3528 78.2904 14.5315 78.2904 14.7948V16.6289C78.6854 15.8576 79.2592 15.2557 80.0116 14.823C80.764 14.3904 81.6199 14.1741 82.5793 14.1741C84.0277 14.1741 85.2504 14.6725 86.2474 15.6695C87.2444 16.6665 87.8087 18.209 87.9404 20.297L88.279 25.6298ZM94.5438 28.2822C93.3211 28.2822 92.3524 27.8965 91.6376 27.1253C90.9416 26.3352 90.5936 25.1972 90.5936 23.7111V15.8388H88.9852C88.6655 15.8388 88.5056 15.6789 88.5056 15.3591V14.9641C88.5056 14.6255 88.6655 14.4562 88.9852 14.4562H89.8599C90.5748 14.4562 91.1485 14.2117 91.5811 13.7226C92.0326 13.2335 92.3148 12.5657 92.4276 11.7192C92.4841 11.3054 92.6722 11.0985 92.9919 11.0985H93.4152C93.7726 11.0985 93.9513 11.3054 93.9513 11.7192L93.9795 14.4562H97.5348C97.6852 14.4562 97.8075 14.5032 97.9016 14.5973C97.9956 14.6914 98.0427 14.8136 98.0427 14.9641V15.3591C98.0427 15.6789 97.8734 15.8388 97.5348 15.8388H93.9795V23.7394C93.9795 24.3977 94.13 24.915 94.431 25.2912C94.7319 25.6486 95.1176 25.8274 95.5878 25.8274C96.7165 25.8274 97.3843 25.3383 97.5912 24.3601C97.6664 24.2096 97.7793 24.1156 97.9298 24.0779C98.0803 24.0403 98.2119 24.0591 98.3248 24.1344C98.4565 24.2096 98.5223 24.3319 98.5223 24.5012C98.5223 25.517 98.1555 26.4011 97.4219 27.1535C96.7071 27.9059 95.7477 28.2822 94.5438 28.2822ZM109.729 23.8522C109.879 23.6453 110.067 23.5701 110.293 23.6265C110.538 23.6829 110.651 23.8522 110.632 24.1344C110.481 25.1502 109.926 26.1001 108.967 26.9842C108.008 27.8495 106.728 28.2822 105.13 28.2822C103.042 28.2822 101.349 27.6238 100.051 26.307C98.7527 24.9903 98.1037 23.2597 98.1037 21.1152C98.1037 19.0837 98.7527 17.4283 100.051 16.1492C101.349 14.8512 102.976 14.1929 104.932 14.1741C106.456 14.1552 107.697 14.4844 108.657 15.1616C109.635 15.8388 110.124 16.7888 110.124 18.0115C110.124 19.0272 109.701 19.8925 108.854 20.6074C108.026 21.3222 106.935 21.8301 105.581 22.131C104.471 22.3756 103.107 22.4226 101.49 22.2721C101.847 23.4008 102.421 24.2943 103.211 24.9526C104.001 25.5922 104.932 25.912 106.004 25.912C106.907 25.912 107.678 25.7239 108.318 25.3477C108.958 24.9526 109.428 24.4542 109.729 23.8522ZM104.452 15.3027C103.474 15.3027 102.675 15.7259 102.054 16.5724C101.433 17.4001 101.123 18.4347 101.123 19.6762C101.123 20.1465 101.151 20.5979 101.207 21.0306C102.618 21.1435 103.869 21.087 104.96 20.8613C105.6 20.7108 106.098 20.4286 106.456 20.0148C106.813 19.5822 106.982 18.9144 106.964 18.0115C106.945 17.259 106.7 16.6195 106.23 16.0928C105.779 15.5661 105.186 15.3027 104.452 15.3027ZM118.675 14.1741C119.484 14.1741 120.114 14.3998 120.565 14.8512C121.035 15.3027 121.271 15.867 121.271 16.5442C121.271 17.7293 120.781 18.3218 119.803 18.3218C119.389 18.3218 119.07 18.209 118.844 17.9832C118.618 17.7575 118.477 17.5036 118.421 17.2214C118.364 16.9392 118.233 16.6853 118.026 16.4596C117.819 16.2338 117.537 16.121 117.179 16.121C116.558 16.121 116.079 16.4596 115.74 17.1368C115.402 17.8139 115.232 18.6416 115.232 19.6198V25.6581C115.232 26.0719 115.449 26.4387 115.881 26.7585C116.314 27.0783 116.53 27.3228 116.53 27.4921V27.605C116.53 27.8683 116.333 28 115.938 28H111.564C111.169 28 110.972 27.8683 110.972 27.605V27.4921C110.972 27.3228 111.15 27.0783 111.508 26.7585C111.865 26.4387 112.044 26.0719 112.044 25.6581V18.0679C112.044 17.6352 111.837 17.2684 111.423 16.9675C111.028 16.6477 110.831 16.4031 110.831 16.2338V16.1492C110.831 15.9423 111 15.7448 111.338 15.5566L114.104 14.2869C114.649 14.0236 114.922 14.1835 114.922 14.7666V16.9675C115.561 15.1052 116.812 14.1741 118.675 14.1741ZM135.167 15.5002C135.167 15.6131 135.073 15.7542 134.884 15.9235C134.696 16.0739 134.508 16.2809 134.32 16.5442C134.132 16.8076 134.038 17.1179 134.038 17.4754V25.6581C134.038 26.0719 134.217 26.4481 134.574 26.7867C134.931 27.1253 135.11 27.3698 135.11 27.5203V27.605C135.11 27.8683 134.95 28 134.63 28H131.696C131.339 28 131.16 27.8213 131.16 27.4639V26.3352C130.238 27.6332 128.884 28.2822 127.097 28.2822C125.291 28.2822 123.739 27.6332 122.441 26.3352C121.162 25.0373 120.522 23.3255 120.522 21.1999C120.522 19.1495 121.153 17.4659 122.413 16.1492C123.692 14.8324 125.272 14.1741 127.153 14.1741C128.79 14.1741 130.125 14.7666 131.16 15.9517V14.9077C131.16 14.6631 131.254 14.4844 131.442 14.3716C131.63 14.2587 131.884 14.2399 132.204 14.3151L134.659 14.823C134.997 14.9171 135.167 15.1146 135.167 15.4156V15.5002ZM127.859 27.2099C128.63 27.2099 129.316 26.8902 129.918 26.2506C130.539 25.611 130.85 24.7175 130.85 23.5701V19.0555C130.85 18.1149 130.492 17.2496 129.777 16.4596C129.062 15.6507 128.225 15.2463 127.266 15.2463C126.213 15.2463 125.366 15.6789 124.727 16.5442C124.087 17.3907 123.758 18.557 123.739 20.043C123.701 22.0182 124.059 23.7017 124.811 25.0937C125.582 26.4857 126.598 27.1911 127.859 27.2099Z" fill="black"/>
<circle cx="10.6783" cy="17.9335" r="8.22901" stroke="black" stroke-width="0.627027"/>
<line x1="10.7974" y1="7.83801" x2="10.7974" y2="9.3912" stroke="black" stroke-width="0.627027"/>
<line x1="10.7974" y1="26.4762" x2="10.7974" y2="28.0294" stroke="black" stroke-width="0.627027"/>
<line y1="17.2319" x2="21.1622" y2="17.2319" stroke="black" stroke-width="0.627027"/>
<path d="M13.5829 20.7606C12.0093 22.4062 10.2403 23.5452 8.66464 24.0658C7.07427 24.5912 5.76597 24.4652 5.00022 23.7329C4.23448 23.0006 4.05013 21.6993 4.50403 20.087C4.95373 18.4897 6.01257 16.6716 7.58621 15.026C9.15986 13.3804 10.9289 12.2415 12.5045 11.7209C14.0949 11.1954 15.4032 11.3214 16.1689 12.0537C16.9346 12.786 17.119 14.0874 16.6651 15.6996C16.2154 17.2969 15.1566 19.115 13.5829 20.7606Z" stroke="black" stroke-width="0.627027"/>
<line x1="4.82616" y1="23.3425" x2="16.0868" y2="12.0819" stroke="black" stroke-width="0.627027"/>
<line x1="10.8999" y1="12.0818" x2="18.86" y2="20.0419" stroke="black" stroke-width="0.627027"/>
<line x1="8.18214" y1="14.2173" x2="17.113" y2="23.1481" stroke="black" stroke-width="0.627027"/>
<line x1="5.85206" y1="16.9357" x2="14.3946" y2="25.4782" stroke="black" stroke-width="0.627027"/>
<line x1="1.35937" y1="11.99" x2="7.57212" y2="11.99" stroke="black" stroke-width="0.627027"/>
<line x1="4.58451" y1="9.00293" x2="4.58451" y2="15.2157" stroke="black" stroke-width="0.627027"/>
</svg>
